<?xml version="1.0" encoding="utf-8"?>
<!-- Generator: Adobe Illustrator 27.7.0, SVG Export Plug-In . SVG Version: 6.00 Build 0)  -->
<svg version="1.1" id="Layer_1" xmlns="http://www.w3.org/2000/svg" xmlns:xlink="http://www.w3.org/1999/xlink" x="0px" y="0px"
	 viewBox="0 0 250 250" style="enable-background:new 0 0 250 250;" xml:space="preserve">
<style type="text/css">
	.st0{clip-path:url(#SVGID_00000111905505472255893830000016550044701034617482_);}
	.st1{fill:url(#SVGID_00000066473918824267659100000018293184202850669478_);}
	.st2{fill:url(#SVGID_00000174568514835319585990000002149895777084301728_);}
</style>
<g>
	<defs>
		<rect id="SVGID_1_" x="32" y="32" width="187.1" height="198"/>
	</defs>
	<clipPath id="SVGID_00000078723678170308341930000007579079136762921119_">
		<use xlink:href="#SVGID_1_"  style="overflow:visible;"/>
	</clipPath>
	<g style="clip-path:url(#SVGID_00000078723678170308341930000007579079136762921119_);">
		
			<linearGradient id="SVGID_00000054952306129916277370000007321202209170898828_" gradientUnits="userSpaceOnUse" x1="5320.5049" y1="-2636.7998" x2="6354.3115" y2="-2145.5166" gradientTransform="matrix(0.1435 0 0 -0.1435 -714.3229 -217.3632)">
			<stop  offset="0" style="stop-color:#E40035"/>
			<stop  offset="0.24" style="stop-color:#F60A48"/>
			<stop  offset="0.352" style="stop-color:#F20755"/>
			<stop  offset="0.494" style="stop-color:#DC087D"/>
			<stop  offset="0.745" style="stop-color:#9717E7"/>
			<stop  offset="1" style="stop-color:#6C00F5"/>
		</linearGradient>
		<path style="fill:url(#SVGID_00000054952306129916277370000007321202209170898828_);" d="M218.3,64.9l-6.7,105.6L147.2,32
			L218.3,64.9z M173.7,201.5l-48.6,27.7l-48.6-27.7l9.9-24h77.4L173.7,201.5z M125.1,84.6l25.5,61.9H99.6
			C99.6,146.5,125.1,84.6,125.1,84.6z M38.6,170.5L32,64.9L103,32L38.6,170.5z"/>
		
			<linearGradient id="SVGID_00000000929664700501663650000002526271570888985005_" gradientUnits="userSpaceOnUse" x1="5471.1445" y1="-1876.5787" x2="6147.6973" y2="-2648.3381" gradientTransform="matrix(0.1435 0 0 -0.1435 -714.3229 -217.3632)">
			<stop  offset="0" style="stop-color:#FF31D9"/>
			<stop  offset="1" style="stop-color:#FF5BE1;stop-opacity:0"/>
		</linearGradient>
		<path style="fill:url(#SVGID_00000000929664700501663650000002526271570888985005_);" d="M218.3,64.9l-6.7,105.6L147.2,32
			L218.3,64.9z M173.7,201.5l-48.6,27.7l-48.6-27.7l9.9-24h77.4L173.7,201.5z M125.1,84.6l25.5,61.9H99.6
			C99.6,146.5,125.1,84.6,125.1,84.6z M38.6,170.5L32,64.9L103,32L38.6,170.5z"/>
	</g>
</g>
</svg>
