<?xml version="1.0" encoding="utf-8"?>
<!-- Generator: Adobe Illustrator 27.7.0, SVG Export Plug-In . SVG Version: 6.00 Build 0)  -->
<svg version="1.1" id="Capa_1" xmlns="http://www.w3.org/2000/svg" xmlns:xlink="http://www.w3.org/1999/xlink" x="0px" y="0px"
	 viewBox="0 0 800 800" style="enable-background:new 0 0 800 800;" xml:space="preserve">
<style type="text/css">
	.st0{fill:none;}
	.st1{fill:#5D87A1;}
	.st2{fill:#F8981D;}
</style>
<path class="st0" d="M0,122.8h800v554.5H0V122.8z"/>
<path class="st1" d="M199.5,630.2h-30c-1.1-50.7-4-98.4-8.8-143h-0.3l-45.7,143H91.8l-45.5-143h-0.3c-3.4,42.9-5.5,90.6-6.4,143
	H12.4c1.8-63.8,6.2-123.6,13.3-179.5h37.2l43.3,131.9h0.3l43.6-131.9h35.6C193.5,516.1,198.1,576,199.5,630.2 M329.8,497.8
	c-12.2,66.4-28.4,114.6-48.4,144.7c-15.6,23.2-32.7,34.8-51.3,34.8c-5,0-11.1-1.5-18.3-4.5v-16c3.5,0.5,7.7,0.8,12.5,0.8
	c8.7,0,15.7-2.4,21-7.2c6.4-5.8,9.6-12.4,9.6-19.7c0-5-2.5-15.2-7.4-30.6l-33-102.4h29.5l23.7,76.6c5.3,17.4,7.5,29.5,6.6,36.4
	c12.9-34.6,22-72.2,27.1-113L329.8,497.8L329.8,497.8L329.8,497.8z"/>
<path class="st2" d="M729.6,630.2h-85.3V450.7H673v157.4h56.6V630.2z M622,634.5l-33-16.3c2.9-2.4,5.7-5,8.2-8
	c14-16.5,21-40.8,21-73.1c0-59.4-23.3-89.1-69.9-89.1c-22.9,0-40.7,7.5-53.4,22.6c-14,16.5-21,40.8-21,72.9
	c0,31.5,6.2,54.7,18.6,69.4c11.3,13.3,28.5,20,51.3,20c8.5,0,16.4-1,23.5-3.2l43,25L622,634.5z M515.1,594.3
	c-7.3-11.7-10.9-30.5-10.9-56.3c0-45.2,13.7-67.8,41.2-67.8c14.4,0,24.9,5.4,31.6,16.2c7.3,11.7,10.9,30.3,10.9,55.8
	c0,45.6-13.7,68.3-41.2,68.3C532.3,610.5,521.8,605.1,515.1,594.3 M461.4,580.5c0,15.2-5.6,27.7-16.7,37.5
	c-11.2,9.7-26.1,14.6-44.9,14.6c-17.6,0-34.6-5.6-51-16.8l7.7-15.4c14.2,7.1,27,10.6,38.5,10.6c10.8,0,19.3-2.4,25.4-7.2
	c6.1-4.8,9.8-11.5,9.8-19.9c0-10.7-7.4-19.8-21.1-27.4c-12.6-6.9-37.7-21.3-37.7-21.3c-13.6-9.9-20.5-20.6-20.5-38.2
	c0-14.5,5.1-26.3,15.3-35.2c10.2-9,23.4-13.4,39.5-13.4c16.7,0,31.8,4.5,45.4,13.3l-6.9,15.4c-11.7-5-23.2-7.4-34.5-7.4
	c-9.2,0-16.3,2.2-21.2,6.7c-5,4.4-8.1,10.1-8.1,17c0,10.6,7.6,19.8,21.6,27.6c12.7,6.9,38.5,21.6,38.5,21.6
	C454.4,552.4,461.4,563,461.4,580.5"/>
<path class="st1" d="M765.6,390.6c-17.4-0.4-30.8,1.3-42.1,6.1c-3.3,1.3-8.4,1.3-8.9,5.4c1.8,1.7,2,4.6,3.5,7
	c2.6,4.3,7.1,10.2,11.3,13.2c4.5,3.5,9.1,6.9,13.9,10c8.4,5.2,18,8.3,26.2,13.5c4.8,3,9.5,6.9,14.3,10.2c2.4,1.7,3.9,4.6,6.9,5.6
	v-0.7c-1.5-2-2-4.8-3.5-6.9l-6.5-6.3c-6.3-8.5-14.1-15.8-22.5-21.9c-6.9-4.8-22.1-11.3-24.9-19.3l-0.4-0.4c4.8-0.4,10.4-2.2,15-3.5
	c7.4-1.9,14.1-1.5,21.7-3.4c3.5-0.9,6.9-2,10.4-3v-2c-3.9-3.9-6.7-9.1-10.8-12.8c-11-9.5-23.2-18.9-35.8-26.7
	c-6.7-4.3-15.4-7.1-22.6-10.8c-2.6-1.3-6.9-2-8.5-4.1c-3.9-4.8-6.1-11.1-8.9-16.7c-6.3-11.9-12.4-25.1-17.8-37.7
	c-3.9-8.5-6.3-16.9-11.1-24.7c-22.3-36.9-46.6-59.2-83.9-81.1c-8-4.6-17.6-6.5-27.7-8.9l-16.3-0.9c-3.5-1.5-6.9-5.6-10-7.6
	c-12.4-7.8-44.2-24.7-53.3-2.4c-5.9,14.1,8.7,28,13.7,35.1c3.7,5,8.5,10.6,11,16.3c1.5,3.7,2,7.6,3.5,11.5
	c3.5,9.5,6.7,20.2,11.3,29.1c2.4,4.5,5,9.3,8,13.4c1.7,2.4,4.8,3.5,5.4,7.4c-3,4.3-3.3,10.8-5,16.3c-7.8,24.5-4.8,54.9,6.3,72.9
	c3.5,5.4,11.7,17.4,22.8,12.8c9.8-3.9,7.6-16.3,10.4-27.1c0.6-2.6,0.2-4.3,1.5-6.1v0.4c3,6.1,6.1,11.9,8.9,18
	c6.7,10.6,18.4,21.7,28.2,29c5.2,3.9,9.3,10.6,15.8,13V401h-0.4c-1.3-1.9-3.2-2.8-5-4.3c-3.9-3.9-8.2-8.7-11.3-13
	c-9.1-12.1-17.1-25.6-24.3-39.5c-3.5-6.7-6.5-14.1-9.3-20.8c-1.3-2.6-1.3-6.5-3.5-7.8c-3.3,4.8-8,8.9-10.4,14.7
	c-4.1,9.3-4.6,20.8-6.1,32.8l-0.9,0.4c-6.9-1.7-9.3-8.9-11.9-14.9c-6.5-15.4-7.6-40.1-2-57.9c1.5-4.5,8-18.9,5.4-23.2
	c-1.3-4.2-5.6-6.5-8-9.8c-2.8-4.1-5.9-9.3-7.8-13.9c-5.2-12.1-7.8-25.6-13.4-37.7c-2.6-5.7-7.2-11.5-10.8-16.7
	c-4.1-5.9-8.7-10-11.9-16.9c-1.1-2.4-2.6-6.3-0.9-8.9c0.4-1.7,1.3-2.4,3-2.8c2.8-2.4,10.8,0.6,13.7,2c8,3.3,14.8,6.3,21.5,10.8
	c3,2.2,6.3,6.3,10.2,7.4h4.6c6.9,1.5,14.7,0.4,21.2,2.4c11.5,3.7,21.9,9.1,31.2,15c28.4,18,51.8,43.6,67.6,74.2
	c2.6,5,3.7,9.5,6.1,14.7c4.6,10.6,10.2,21.5,14.7,31.9c4.6,10.2,8.9,20.6,15.4,29.1c3.2,4.6,16.3,6.9,22.1,9.3
	c4.3,1.9,11.1,3.7,15,6.1c7.4,4.5,14.7,9.8,21.7,14.8C754.1,380.9,765,386.3,765.6,390.6 M544.5,202.2c-3,0-6,0.3-8.9,1.1v0.4h0.4
	c1.7,3.5,4.8,5.9,6.9,8.9c1.7,3.5,3.3,6.9,5,10.4l0.4-0.4c3.1-2.2,4.6-5.6,4.6-10.8c-1.3-1.5-1.5-3-2.6-4.6
	C549,205,546.2,203.9,544.5,202.2"/>
<path class="st2" d="M786.3,630.2h4.5v-22h-6.7l-5.5,15l-6-15h-6.5v22h4.2v-16.7h0.2l6.3,16.7h3.2l6.2-16.7L786.3,630.2L786.3,630.2
	z M750.1,630.2h4.8v-18.3h6.2v-3.7h-17.5v3.7h6.5L750.1,630.2L750.1,630.2z"/>
</svg>
